<?xml version="1.0" encoding="UTF-8"?>
<!DOCTYPE svg PUBLIC "-//W3C//DTD SVG 1.1//EN" "http://www.w3.org/Graphics/SVG/1.1/DTD/svg11.dtd">
<svg xmlns="http://www.w3.org/2000/svg" version="1.1" width="500px" height="500px" style="shape-rendering:geometricPrecision; text-rendering:geometricPrecision; image-rendering:optimizeQuality; fill-rule:evenodd; clip-rule:evenodd" xmlns:xlink="http://www.w3.org/1999/xlink">
<g><path style="opacity:0.004" fill="#000000" d="M 97.5,2.5 C 98.8333,3.16667 98.8333,3.16667 97.5,2.5 Z"/></g>
<g><path style="opacity:0.004" fill="#000000" d="M 385.5,10.5 C 386.833,11.1667 386.833,11.1667 385.5,10.5 Z"/></g>
<g><path style="opacity:0.004" fill="#000000" d="M 398.5,15.5 C 399.833,16.1667 399.833,16.1667 398.5,15.5 Z"/></g>
<g><path style="opacity:0.004" fill="#000000" d="M 7.5,18.5 C 8.83333,19.1667 8.83333,19.1667 7.5,18.5 Z"/></g>
<g><path style="opacity:0.004" fill="#000000" d="M 130.5,24.5 C 131.833,25.1667 131.833,25.1667 130.5,24.5 Z"/></g>
<g><path style="opacity:0.004" fill="#000000" d="M 464.5,27.5 C 465.833,28.1667 465.833,28.1667 464.5,27.5 Z"/></g>
<g><path style="opacity:0.004" fill="#000000" d="M 121.5,32.5 C 122.833,33.1667 122.833,33.1667 121.5,32.5 Z"/></g>
<g><path style="opacity:0.004" fill="#000000" d="M 128.5,41.5 C 129.833,42.1667 129.833,42.1667 128.5,41.5 Z"/></g>
<g><path style="opacity:0.004" fill="#000000" d="M 424.5,41.5 C 425.833,42.1667 425.833,42.1667 424.5,41.5 Z"/></g>
<g><path style="opacity:0.004" fill="#000000" d="M 226.5,51.5 C 227.833,52.1667 227.833,52.1667 226.5,51.5 Z"/></g>
<g><path style="opacity:0.004" fill="#000000" d="M 208.5,54.5 C 209.833,55.1667 209.833,55.1667 208.5,54.5 Z"/></g>
<g><path style="opacity:0.004" fill="#000000" d="M 178.5,69.5 C 179.833,70.1667 179.833,70.1667 178.5,69.5 Z"/></g>
<g><path style="opacity:0.004" fill="#000000" d="M 98.5,74.5 C 99.8333,75.1667 99.8333,75.1667 98.5,74.5 Z"/></g>
<g><path style="opacity:0.004" fill="#000000" d="M 381.5,78.5 C 382.833,79.1667 382.833,79.1667 381.5,78.5 Z"/></g>
<g><path style="opacity:0.004" fill="#000000" d="M 88.5,81.5 C 89.8333,82.1667 89.8333,82.1667 88.5,81.5 Z"/></g>
<g><path style="opacity:0.004" fill="#000000" d="M 178.5,81.5 C 179.833,82.1667 179.833,82.1667 178.5,81.5 Z"/></g>
<g><path style="opacity:0.004" fill="#000000" d="M 396.5,85.5 C 397.833,86.1667 397.833,86.1667 396.5,85.5 Z"/></g>
<g><path style="opacity:0.004" fill="#000000" d="M 26.5,100.5 C 27.8333,101.167 27.8333,101.167 26.5,100.5 Z"/></g>
<g><path style="opacity:0.004" fill="#000000" d="M 297.5,100.5 C 298.833,101.167 298.833,101.167 297.5,100.5 Z"/></g>
<g><path style="opacity:0.004" fill="#000000" d="M 453.5,103.5 C 454.833,104.167 454.833,104.167 453.5,103.5 Z"/></g>
<g><path style="opacity:0.004" fill="#000000" d="M 123.5,104.5 C 124.833,105.167 124.833,105.167 123.5,104.5 Z"/></g>
<g><path style="opacity:0.004" fill="#000000" d="M 292.5,105.5 C 293.833,106.167 293.833,106.167 292.5,105.5 Z"/></g>
<g><path style="opacity:0.004" fill="#000000" d="M 477.5,120.5 C 478.833,121.167 478.833,121.167 477.5,120.5 Z"/></g>
<g><path style="opacity:0.004" fill="#000000" d="M 26.5,121.5 C 27.8333,122.167 27.8333,122.167 26.5,121.5 Z"/></g>
<g><path style="opacity:0.004" fill="#000000" d="M 220.5,124.5 C 221.833,125.167 221.833,125.167 220.5,124.5 Z"/></g>
<g><path style="opacity:0.004" fill="#000000" d="M 378.5,124.5 C 379.833,125.167 379.833,125.167 378.5,124.5 Z"/></g>
<g><path style="opacity:0.004" fill="#000000" d="M 198.5,126.5 C 199.833,127.167 199.833,127.167 198.5,126.5 Z"/></g>
<g><path style="opacity:0.004" fill="#000000" d="M 272.5,135.5 C 273.833,136.167 273.833,136.167 272.5,135.5 Z"/></g>
<g><path style="opacity:0.004" fill="#000000" d="M 90.5,139.5 C 91.8333,140.167 91.8333,140.167 90.5,139.5 Z"/></g>
<g><path style="opacity:0.004" fill="#000000" d="M 340.5,139.5 C 341.833,140.167 341.833,140.167 340.5,139.5 Z"/></g>
<g><path style="opacity:0.004" fill="#000000" d="M 261.5,141.5 C 262.833,142.167 262.833,142.167 261.5,141.5 Z"/></g>
<g><path style="opacity:0.004" fill="#000000" d="M 121.5,145.5 C 122.833,146.167 122.833,146.167 121.5,145.5 Z"/></g>
<g><path style="opacity:0.004" fill="#000000" d="M 241.5,149.5 C 242.833,150.167 242.833,150.167 241.5,149.5 Z"/></g>
<g><path style="opacity:0.004" fill="#000000" d="M 412.5,150.5 C 413.833,151.167 413.833,151.167 412.5,150.5 Z"/></g>
<g><path style="opacity:0.004" fill="#000000" d="M 389.5,158.5 C 390.833,159.167 390.833,159.167 389.5,158.5 Z"/></g>
<g><path style="opacity:0.004" fill="#000000" d="M 357.5,163.5 C 358.833,164.167 358.833,164.167 357.5,163.5 Z"/></g>
<g><path style="opacity:0.897" fill="#b172bd" d="M 294.5,174.5 C 286.51,175.058 278.51,175.558 270.5,176C 269.956,176.717 269.289,177.217 268.5,177.5C 268.414,176.504 268.748,175.671 269.5,175C 276.514,174.676 283.514,174.176 290.5,173.5C 292.045,173.511 293.378,173.844 294.5,174.5 Z"/></g>
<g><path style="opacity:0.663" fill="#ac63ba" d="M 186.5,176.5 C 185.833,176.5 185.167,176.5 184.5,176.5C 177.137,176.169 169.803,176.503 162.5,177.5C 162.058,178.739 161.391,179.739 160.5,180.5C 160.286,178.856 160.62,177.356 161.5,176C 170.01,175.177 178.344,175.343 186.5,176.5 Z"/></g>
<g><path style="opacity:1" fill="#d169e6" d="M 393.5,173.5 C 394.167,173.5 394.5,173.833 394.5,174.5C 399.396,176.446 404.729,177.113 410.5,176.5C 410.403,193.506 410.07,210.506 409.5,227.5C 409.5,231.5 409.5,235.5 409.5,239.5C 407.883,244.916 407.216,250.583 407.5,256.5C 421.167,256.5 434.833,256.5 448.5,256.5C 448.5,263.833 448.5,271.167 448.5,278.5C 446.891,278.094 445.557,278.094 444.5,278.5C 446.005,279.842 446.672,281.508 446.5,283.5C 443.206,283.259 440.206,284.092 437.5,286C 423.645,286.21 409.812,286.71 396,287.5C 390.48,287.414 384.98,286.414 379.5,284.5C 379.5,280.167 379.5,275.833 379.5,271.5C 380.784,264.898 380.784,258.232 379.5,251.5C 379.833,251.5 380.167,251.5 380.5,251.5C 381.117,251.611 381.617,251.944 382,252.5C 382.827,238.327 382.661,224.327 381.5,210.5C 382.11,209.609 382.443,208.609 382.5,207.5C 384.475,197.554 385.142,187.221 384.5,176.5C 387.509,175.371 390.509,174.371 393.5,173.5 Z M 391.5,249.5 C 393.975,249.747 393.975,250.413 391.5,251.5C 390.537,251.03 390.537,250.363 391.5,249.5 Z"/></g>
<g><path style="opacity:1" fill="#c26fd4" d="M 88.5,176.5 C 82.1579,176.334 75.8246,176.5 69.5,177C 65.5585,181.271 61.2252,182.104 56.5,179.5C 67.1263,175.231 77.793,174.231 88.5,176.5 Z"/></g>
<g><path style="opacity:1" fill="#c96adb" d="M 294.5,174.5 C 294.833,174.5 295.167,174.5 295.5,174.5C 295.822,180.358 295.489,186.025 294.5,191.5C 294.5,186.5 294.5,181.5 294.5,176.5C 292.41,176.45 291.077,177.45 290.5,179.5C 291.025,180.192 291.692,180.692 292.5,181C 288.798,181.1 285.298,181.933 282,183.5C 279.51,183.001 277.01,182.667 274.5,182.5C 273.778,182.918 273.278,183.584 273,184.5C 272.092,182.561 270.592,181.561 268.5,181.5C 269.138,190.895 268.471,199.895 266.5,208.5C 266.646,198.119 267.313,187.786 268.5,177.5C 269.289,177.217 269.956,176.717 270.5,176C 278.51,175.558 286.51,175.058 294.5,174.5 Z"/></g>
<g><path style="opacity:0.004" fill="#000000" d="M 479.5,180.5 C 480.833,181.167 480.833,181.167 479.5,180.5 Z"/></g>
<g><path style="opacity:1" fill="#c56dd6" d="M 257.5,185.5 C 253.889,185.361 251.223,183.694 249.5,180.5C 248.5,180.167 247.5,179.833 246.5,179.5C 244.159,180.182 241.826,180.849 239.5,181.5C 239.227,179.549 239.893,178.049 241.5,177C 235.175,176.5 228.842,176.334 222.5,176.5C 233.548,173.641 244.214,175.141 254.5,181C 256.141,182.129 257.141,183.629 257.5,185.5 Z"/></g>
<g><path style="opacity:1" fill="#d069e5" d="M 294.5,191.5 C 294.5,196.833 294.5,202.167 294.5,207.5C 294.585,210.895 294.918,213.895 295.5,216.5C 301.928,218.126 308.595,218.793 315.5,218.5C 312.642,219.166 309.642,219.833 306.5,220.5C 308.981,221.787 311.481,223.12 314,224.5C 315.572,222.437 317.405,221.771 319.5,222.5C 318.167,223.5 318.167,224.5 319.5,225.5C 318.277,227.46 316.944,229.293 315.5,231C 316.167,231.333 316.833,231.667 317.5,232C 311.124,233.286 311.458,234.286 318.5,235C 320.229,236.789 320.896,238.956 320.5,241.5C 317.221,240.969 315.887,238.969 316.5,235.5C 313.5,235.5 310.5,235.5 307.5,235.5C 307.5,237.167 307.5,238.833 307.5,240.5C 308.5,240.5 309.5,240.5 310.5,240.5C 306.979,241.371 303.312,242.205 299.5,243C 298.944,243.383 298.611,243.883 298.5,244.5C 297.791,245.404 296.791,245.737 295.5,245.5C 294.5,245.5 293.5,245.5 292.5,245.5C 292.5,256.5 292.5,267.5 292.5,278.5C 292.5,279.167 292.5,279.833 292.5,280.5C 291.79,282.893 291.123,285.393 290.5,288C 281.5,288.667 272.5,288.667 263.5,288C 262.524,281.924 262.19,275.758 262.5,269.5C 262.5,269.167 262.5,268.833 262.5,268.5C 263.947,259.037 264.613,249.37 264.5,239.5C 266.474,229.889 267.141,219.889 266.5,209.5C 266.5,209.167 266.5,208.833 266.5,208.5C 268.471,199.895 269.138,190.895 268.5,181.5C 270.592,181.561 272.092,182.561 273,184.5C 273.278,183.584 273.778,182.918 274.5,182.5C 277.01,182.667 279.51,183.001 282,183.5C 285.298,181.933 288.798,181.1 292.5,181C 291.692,180.692 291.025,180.192 290.5,179.5C 291.077,177.45 292.41,176.45 294.5,176.5C 294.5,181.5 294.5,186.5 294.5,191.5 Z"/></g>
<g><path style="opacity:1" fill="#bd6bcb" d="M 97.5,180.5 C 101.389,182.243 103.889,185.243 105,189.5C 106.537,197.77 106.87,206.103 106,214.5C 97.4017,215.828 88.9017,215.828 80.5,214.5C 88.2233,214.8 95.8899,214.467 103.5,213.5C 104.665,205.855 104.831,198.188 104,190.5C 102.954,188.91 101.787,187.41 100.5,186C 99.2559,185.544 98.4226,186.044 98,187.5C 97.5172,186.552 97.3505,185.552 97.5,184.5C 98.552,184.649 99.552,184.483 100.5,184C 98.9371,183.241 97.9371,182.074 97.5,180.5 Z"/></g>
<g><path style="opacity:0.906" fill="#b26cc1" d="M 346.5,174.5 C 347.117,174.611 347.617,174.944 348,175.5C 348.177,183.341 347.677,191.007 346.5,198.5C 346.5,190.5 346.5,182.5 346.5,174.5 Z"/></g>
<g><path style="opacity:1" fill="#d169e6" d="M 137.5,176.5 C 138.855,184.769 138.022,192.769 135,200.5C 134.173,214.34 134.339,228.006 135.5,241.5C 135.5,242.167 135.167,242.5 134.5,242.5C 133.732,241.737 133.232,240.737 133,239.5C 132.333,243.833 132.333,248.167 133,252.5C 134.194,254.623 134.86,256.957 135,259.5C 141.799,263.647 148.132,262.98 154,257.5C 155.009,255.975 155.509,254.308 155.5,252.5C 155.216,250.585 155.549,248.919 156.5,247.5C 160.019,225.469 161.353,203.136 160.5,180.5C 161.391,179.739 162.058,178.739 162.5,177.5C 169.803,176.503 177.137,176.169 184.5,176.5C 183.469,177.249 182.302,177.915 181,178.5C 180.195,181.696 180.362,184.696 181.5,187.5C 181.5,187.833 181.5,188.167 181.5,188.5C 182.172,189.267 183.005,189.934 184,190.5C 184.642,193.277 185.476,195.944 186.5,198.5C 184.42,206.871 184.087,215.371 185.5,224C 185.13,234.234 184.13,244.4 182.5,254.5C 182.507,256.369 182.84,258.036 183.5,259.5C 183.5,260.167 183.167,260.5 182.5,260.5C 180.989,261.502 179.322,262.169 177.5,262.5C 178.315,268.324 175.981,271.991 170.5,273.5C 170.5,275.833 170.5,278.167 170.5,280.5C 169.833,280.833 169.167,281.167 168.5,281.5C 164.609,282.502 160.609,283.335 156.5,284C 153.799,285.92 150.799,287.253 147.5,288C 141.175,288.5 134.842,288.666 128.5,288.5C 128.167,288.5 127.833,288.5 127.5,288.5C 126.411,286.883 124.744,286.05 122.5,286C 123.448,285.517 124.448,285.351 125.5,285.5C 125.5,284.5 125.5,283.5 125.5,282.5C 121.121,285.739 117.788,284.905 115.5,280C 118.225,277.563 117.892,275.563 114.5,274C 112.899,273.727 111.399,273.227 110,272.5C 109.667,270.5 109.333,268.5 109,266.5C 108.547,249.889 108.547,233.222 109,216.5C 110.19,210.704 111.69,205.038 113.5,199.5C 113.232,201.099 113.566,202.432 114.5,203.5C 115.486,199.03 115.819,194.363 115.5,189.5C 115.5,188.167 115.5,186.833 115.5,185.5C 115.5,185.167 115.5,184.833 115.5,184.5C 115.539,182.776 115.206,182.443 114.5,183.5C 113.105,185.054 112.439,184.721 112.5,182.5C 112.887,180.726 113.553,179.059 114.5,177.5C 122.138,176.503 129.804,176.169 137.5,176.5 Z"/></g>
<g><path style="opacity:1" fill="#d169e5" d="M 222.5,176.5 C 228.842,176.334 235.175,176.5 241.5,177C 239.893,178.049 239.227,179.549 239.5,181.5C 241.826,180.849 244.159,180.182 246.5,179.5C 247.5,179.833 248.5,180.167 249.5,180.5C 251.223,183.694 253.889,185.361 257.5,185.5C 259.949,195 260.949,204.667 260.5,214.5C 252.472,214.831 244.472,214.498 236.5,213.5C 235.878,208.186 235.211,202.853 234.5,197.5C 231.897,196.438 229.23,196.272 226.5,197C 225.663,198.011 225.33,199.178 225.5,200.5C 224.5,200.5 223.5,200.5 222.5,200.5C 222.174,204.884 222.508,209.217 223.5,213.5C 225.217,214.668 225.884,216.335 225.5,218.5C 227.216,218.629 228.883,218.962 230.5,219.5C 233.511,220.669 236.178,222.336 238.5,224.5C 240.731,227.392 243.564,229.726 247,231.5C 247.483,232.448 247.649,233.448 247.5,234.5C 246.127,234.343 244.793,234.51 243.5,235C 243.944,236.533 244.277,238.033 244.5,239.5C 246.506,237.492 248.839,236.159 251.5,235.5C 251.5,236.833 251.5,238.167 251.5,239.5C 252.822,239.33 253.989,239.663 255,240.5C 255.048,243.329 256.048,245.663 258,247.5C 258.499,253.491 258.666,259.491 258.5,265.5C 255.239,265.1 254.572,266.267 256.5,269C 255.828,271.009 254.828,272.842 253.5,274.5C 252.325,273.145 251.325,273.312 250.5,275C 251.337,276.011 251.67,277.178 251.5,278.5C 248.5,277.167 245.5,277.167 242.5,278.5C 242.312,280.103 242.812,281.437 244,282.5C 246.69,278.458 247.523,278.791 246.5,283.5C 244.167,283.5 241.833,283.5 239.5,283.5C 239.5,284.5 239.5,285.5 239.5,286.5C 231.623,288.258 223.623,288.758 215.5,288C 209.285,285.874 202.951,284.041 196.5,282.5C 192.222,281.711 188.888,279.544 186.5,276C 189.236,269.861 192.236,263.861 195.5,258C 197.167,257.333 198.833,257.333 200.5,258C 205.101,260.798 209.768,263.298 214.5,265.5C 220.21,269.974 225.377,269.307 230,263.5C 232.205,255.907 229.705,250.907 222.5,248.5C 219.489,247.331 216.822,245.664 214.5,243.5C 213.757,239.664 211.424,237.997 207.5,238.5C 207.5,237.5 207.5,236.5 207.5,235.5C 201.745,234.741 198.745,231.408 198.5,225.5C 199.675,225.719 200.675,225.386 201.5,224.5C 199.922,223.702 198.256,223.202 196.5,223C 195.915,221.698 195.249,220.531 194.5,219.5C 193.974,215.688 193.307,212.021 192.5,208.5C 193.234,207.292 193.567,205.959 193.5,204.5C 197.25,196.582 201.917,189.248 207.5,182.5C 211.78,178.956 216.78,176.956 222.5,176.5 Z M 244.5,264.5 C 246.975,264.747 246.975,265.413 244.5,266.5C 243.537,266.03 243.537,265.363 244.5,264.5 Z"/></g>
<g><path style="opacity:1" fill="#d069e5" d="M 88.5,176.5 C 92.1645,176.502 95.1645,177.835 97.5,180.5C 97.9371,182.074 98.9371,183.241 100.5,184C 99.552,184.483 98.552,184.649 97.5,184.5C 97.3505,185.552 97.5172,186.552 98,187.5C 98.4226,186.044 99.2559,185.544 100.5,186C 101.787,187.41 102.954,188.91 104,190.5C 104.831,198.188 104.665,205.855 103.5,213.5C 95.8899,214.467 88.2233,214.8 80.5,214.5C 80.5,214.167 80.5,213.833 80.5,213.5C 80.8066,207.907 80.4732,202.407 79.5,197C 72.6403,194.922 69.307,197.422 69.5,204.5C 69.1562,208.966 70.3229,212.966 73,216.5C 82.7238,222.533 91.7238,229.533 100,237.5C 101.705,239.577 102.872,241.91 103.5,244.5C 104.432,247.699 104.432,250.865 103.5,254C 104.833,254.667 106.167,255.333 107.5,256C 106.293,257.3 105.626,258.8 105.5,260.5C 103.593,276.74 94.5928,286.073 78.5,288.5C 68.4457,289.207 58.9457,287.54 50,283.5C 48.4672,283.773 46.9672,284.106 45.5,284.5C 45.0441,280.889 45.7108,277.556 47.5,274.5C 44.8333,273.167 44.8333,271.833 47.5,270.5C 46.3112,269.571 44.9778,269.238 43.5,269.5C 44.2618,276.742 41.2618,279.075 34.5,276.5C 34.0792,269.792 37.0792,265.958 43.5,265C 42.552,264.517 41.552,264.351 40.5,264.5C 39.8254,258.718 42.1587,257.051 47.5,259.5C 50.1667,260.833 52.8333,262.167 55.5,263.5C 56.9746,265.41 58.9746,266.576 61.5,267C 72.8417,269.988 77.3417,265.822 75,254.5C 74.2411,252.937 73.0744,251.937 71.5,251.5C 68.1292,249.154 64.7959,246.821 61.5,244.5C 60.5398,242.539 59.2065,240.873 57.5,239.5C 53.6463,237.075 49.9797,234.408 46.5,231.5C 45.3112,230.571 43.9778,230.238 42.5,230.5C 41.3995,229.395 40.7329,228.062 40.5,226.5C 41.3058,225.003 41.9724,223.336 42.5,221.5C 41.2556,218.362 40.589,215.028 40.5,211.5C 40.6493,207.141 40.9827,202.808 41.5,198.5C 43.8628,190.132 48.8628,183.798 56.5,179.5C 61.2252,182.104 65.5585,181.271 69.5,177C 75.8246,176.5 82.1579,176.334 88.5,176.5 Z"/></g>
<g><path style="opacity:1" fill="#d069e5" d="M 346.5,174.5 C 346.5,182.5 346.5,190.5 346.5,198.5C 346.751,204.892 346.418,211.225 345.5,217.5C 344.671,225.657 344.171,233.99 344,242.5C 343.397,239.094 342.231,238.761 340.5,241.5C 341,242.5 341.5,243.5 342,244.5C 342.5,258.496 342.667,272.496 342.5,286.5C 339.15,286.335 335.817,286.502 332.5,287C 331.944,287.383 331.611,287.883 331.5,288.5C 330.142,288.822 328.475,288.822 326.5,288.5C 322.769,287.804 318.935,287.138 315,286.5C 314.647,271.353 314.98,256.353 316,241.5C 314.301,240.594 312.467,240.261 310.5,240.5C 309.5,240.5 308.5,240.5 307.5,240.5C 307.5,238.833 307.5,237.167 307.5,235.5C 310.5,235.5 313.5,235.5 316.5,235.5C 315.887,238.969 317.221,240.969 320.5,241.5C 320.896,238.956 320.229,236.789 318.5,235C 311.458,234.286 311.124,233.286 317.5,232C 316.833,231.667 316.167,231.333 315.5,231C 316.944,229.293 318.277,227.46 319.5,225.5C 318.167,224.5 318.167,223.5 319.5,222.5C 317.405,221.771 315.572,222.437 314,224.5C 311.481,223.12 308.981,221.787 306.5,220.5C 309.642,219.833 312.642,219.166 315.5,218.5C 316.79,217.942 317.623,216.942 318,215.5C 318.414,201.684 319.247,188.018 320.5,174.5C 329.167,174.5 337.833,174.5 346.5,174.5 Z"/></g>
<g><path style="opacity:1" fill="#bb6cca" d="M 346.5,174.5 C 337.833,174.5 329.167,174.5 320.5,174.5C 319.247,188.018 318.414,201.684 318,215.5C 317.623,216.942 316.79,217.942 315.5,218.5C 308.595,218.793 301.928,218.126 295.5,216.5C 302.5,216.5 309.5,216.5 316.5,216.5C 316.798,202.426 317.798,188.426 319.5,174.5C 328.658,173.178 337.658,173.178 346.5,174.5 Z"/></g>
<g><path style="opacity:1" fill="#be6ecf" d="M 355.5,174.5 C 363.99,173.343 372.657,173.176 381.5,174C 382.025,174.692 382.692,175.192 383.5,175.5C 386.612,173.816 389.946,173.15 393.5,173.5C 390.509,174.371 387.509,175.371 384.5,176.5C 385.142,187.221 384.475,197.554 382.5,207.5C 382.821,202.305 382.487,197.305 381.5,192.5C 381.5,188.833 381.5,185.167 381.5,181.5C 381.756,179.208 381.423,177.041 380.5,175C 372.173,174.5 363.84,174.334 355.5,174.5 Z"/></g>
<g><path style="opacity:1" fill="#b46bc3" d="M 80.5,213.5 C 79.7875,208.632 79.1208,203.632 78.5,198.5C 76.4503,197.337 74.4503,197.504 72.5,199C 71.3913,200.876 70.3913,202.709 69.5,204.5C 69.307,197.422 72.6403,194.922 79.5,197C 80.4732,202.407 80.8066,207.907 80.5,213.5 Z"/></g>
<g><path style="opacity:0.831" fill="#ae67bc" d="M 295.5,174.5 C 296.61,185.525 296.277,196.525 294.5,207.5C 294.5,202.167 294.5,196.833 294.5,191.5C 295.489,186.025 295.822,180.358 295.5,174.5 Z"/></g>
<g><path style="opacity:1" fill="#be6acd" d="M 137.5,176.5 C 138.117,176.611 138.617,176.944 139,177.5C 139.167,179.333 139.333,181.167 139.5,183C 137.641,202.469 136.308,221.969 135.5,241.5C 134.339,228.006 134.173,214.34 135,200.5C 138.022,192.769 138.855,184.769 137.5,176.5 Z"/></g>
<g><path style="opacity:1" fill="#bc73ca" d="M 207.5,182.5 C 201.917,189.248 197.25,196.582 193.5,204.5C 195.661,195.498 200.328,188.164 207.5,182.5 Z"/></g>
<g><path style="opacity:0.81" fill="#b467c0" d="M 257.5,185.5 C 259.714,187.995 260.881,190.995 261,194.5C 261.821,201.346 261.654,208.013 260.5,214.5C 260.949,204.667 259.949,195 257.5,185.5 Z"/></g>
<g><path style="opacity:1" fill="#bf67cd" d="M 184.5,176.5 C 185.167,176.5 185.833,176.5 186.5,176.5C 187.235,190.047 187.568,203.714 187.5,217.5C 187.052,231.573 185.719,245.573 183.5,259.5C 182.84,258.036 182.507,256.369 182.5,254.5C 184.13,244.4 185.13,234.234 185.5,224C 184.087,215.371 184.42,206.871 186.5,198.5C 185.476,195.944 184.642,193.277 184,190.5C 183.005,189.934 182.172,189.267 181.5,188.5C 183.281,185.817 183.781,182.817 183,179.5C 181.625,181.937 181.125,184.603 181.5,187.5C 180.362,184.696 180.195,181.696 181,178.5C 182.302,177.915 183.469,177.249 184.5,176.5 Z"/></g>
<g><path style="opacity:0.004" fill="#000000" d="M 474.5,204.5 C 475.833,205.167 475.833,205.167 474.5,204.5 Z"/></g>
<g><path style="opacity:1" fill="#b96dc7" d="M 160.5,180.5 C 161.353,203.136 160.019,225.469 156.5,247.5C 157.607,225 158.94,202.667 160.5,180.5 Z"/></g>
<g><path style="opacity:0.514" fill="#b46ac0" d="M 260.5,214.5 C 252.324,215.821 243.991,215.821 235.5,214.5C 234.721,209.887 234.221,205.22 234,200.5C 230.663,196.364 227.829,196.864 225.5,202C 225.833,202.333 226.167,202.667 226.5,203C 225.296,204.353 224.629,206.019 224.5,208C 225.033,212.565 227.033,216.398 230.5,219.5C 228.883,218.962 227.216,218.629 225.5,218.5C 225.884,216.335 225.217,214.668 223.5,213.5C 222.508,209.217 222.174,204.884 222.5,200.5C 223.5,200.5 224.5,200.5 225.5,200.5C 225.33,199.178 225.663,198.011 226.5,197C 229.23,196.272 231.897,196.438 234.5,197.5C 235.211,202.853 235.878,208.186 236.5,213.5C 244.472,214.498 252.472,214.831 260.5,214.5 Z"/></g>
<g><path style="opacity:1" fill="#c46fd2" d="M 41.5,198.5 C 40.9827,202.808 40.6493,207.141 40.5,211.5C 40.589,215.028 41.2556,218.362 42.5,221.5C 41.9724,223.336 41.3058,225.003 40.5,226.5C 36.3603,216.925 36.6936,207.592 41.5,198.5 Z"/></g>
<g><path style="opacity:0.412" fill="#ad70b6" d="M 192.5,208.5 C 193.307,212.021 193.974,215.688 194.5,219.5C 194.5,220.833 194.5,222.167 194.5,223.5C 192.855,218.766 192.189,213.766 192.5,208.5 Z"/></g>
<g><path style="opacity:1" fill="#bc6fcb" d="M 355.5,174.5 C 354.314,175.961 354.314,177.295 355.5,178.5C 355.923,179.265 356.257,180.098 356.5,181C 355.671,184.478 355.004,187.978 354.5,191.5C 357.608,189.766 359.274,187.1 359.5,183.5C 360.043,183.56 360.376,183.893 360.5,184.5C 358.12,188.464 357.12,192.797 357.5,197.5C 357.666,202.844 357.499,208.177 357,213.5C 356.79,215.058 356.29,216.391 355.5,217.5C 355.457,210.957 354.79,210.957 353.5,217.5C 354.348,219.409 354.682,221.409 354.5,223.5C 352.955,222.77 352.122,221.437 352,219.5C 351.667,219.833 351.333,220.167 351,220.5C 350.882,242.929 350.049,265.262 348.5,287.5C 348.093,250.603 349.593,213.603 353,176.5C 353.417,175.244 354.25,174.577 355.5,174.5 Z M 355.5,199.5 C 356.833,202.5 356.833,205.5 355.5,208.5C 355.108,205.324 355.108,202.324 355.5,199.5 Z"/></g>
<g><path style="opacity:1" fill="#c869d9" d="M 354.5,191.5 C 354.5,192.167 354.833,192.5 355.5,192.5C 355.5,194.833 355.5,197.167 355.5,199.5C 355.108,202.324 355.108,205.324 355.5,208.5C 355.585,209.995 354.919,210.995 353.5,211.5C 352.335,204.189 352.169,196.856 353,189.5C 353.278,190.416 353.778,191.082 354.5,191.5 Z"/></g>
<g><path style="opacity:1" fill="#d169e6" d="M 355.5,174.5 C 363.84,174.334 372.173,174.5 380.5,175C 381.423,177.041 381.756,179.208 381.5,181.5C 380.844,186.73 380.011,192.064 379,197.5C 377.701,197.966 376.201,197.966 374.5,197.5C 374.104,200.044 374.771,202.211 376.5,204C 374.299,204.777 374.299,205.944 376.5,207.5C 377.086,207.291 377.586,206.957 378,206.5C 379.065,217.378 378.399,228.044 376,238.5C 375.586,238.957 375.086,239.291 374.5,239.5C 373.031,236.702 372.198,233.702 372,230.5C 371.586,230.043 371.086,229.709 370.5,229.5C 369.571,230.689 369.238,232.022 369.5,233.5C 369.5,233.833 369.5,234.167 369.5,234.5C 369.5,236.167 369.5,237.833 369.5,239.5C 370.675,239.281 371.675,239.614 372.5,240.5C 368.283,242.821 367.283,246.155 369.5,250.5C 367.473,250.662 365.473,250.495 363.5,250C 365.662,247.478 365.995,244.645 364.5,241.5C 363.833,241.167 363.167,240.833 362.5,240.5C 362.418,243.333 362.252,246.333 362,249.5C 361.101,251.327 359.767,252.66 358,253.5C 357.055,253.095 356.388,252.428 356,251.5C 357.273,244.213 357.773,236.879 357.5,229.5C 356.833,228.5 356.167,227.5 355.5,226.5C 356.025,225.808 356.692,225.308 357.5,225C 356.24,223.186 356.24,221.353 357.5,219.5C 360.679,222.035 362.012,221.035 361.5,216.5C 361.333,215.167 361.167,213.833 361,212.5C 360.333,211.167 359.667,211.167 359,212.5C 358.284,209.582 358.784,206.915 360.5,204.5C 359.727,201.966 358.727,199.632 357.5,197.5C 357.12,192.797 358.12,188.464 360.5,184.5C 360.376,183.893 360.043,183.56 359.5,183.5C 360.496,182.123 361.496,180.623 362.5,179C 360.12,179.522 357.787,179.355 355.5,178.5C 354.314,177.295 354.314,175.961 355.5,174.5 Z"/></g>
<g><path style="opacity:0.48" fill="#b46ac0" d="M 394.5,174.5 C 400.631,173.908 406.464,174.575 412,176.5C 411.924,193.677 411.091,210.677 409.5,227.5C 410.07,210.506 410.403,193.506 410.5,176.5C 404.729,177.113 399.396,176.446 394.5,174.5 Z"/></g>
<g><path style="opacity:1" fill="#bc6ecb" d="M 266.5,209.5 C 267.141,219.889 266.474,229.889 264.5,239.5C 264.513,229.306 265.18,219.306 266.5,209.5 Z"/></g>
<g><path style="opacity:1" fill="#c46fd5" d="M 238.5,224.5 C 259.972,235.764 265.805,252.431 256,274.5C 253.6,278.402 250.434,281.402 246.5,283.5C 247.523,278.791 246.69,278.458 244,282.5C 242.812,281.437 242.312,280.103 242.5,278.5C 245.5,277.167 248.5,277.167 251.5,278.5C 251.67,277.178 251.337,276.011 250.5,275C 251.325,273.312 252.325,273.145 253.5,274.5C 254.828,272.842 255.828,271.009 256.5,269C 254.572,266.267 255.239,265.1 258.5,265.5C 258.666,259.491 258.499,253.491 258,247.5C 256.048,245.663 255.048,243.329 255,240.5C 253.989,239.663 252.822,239.33 251.5,239.5C 251.5,238.167 251.5,236.833 251.5,235.5C 248.839,236.159 246.506,237.492 244.5,239.5C 244.277,238.033 243.944,236.533 243.5,235C 244.793,234.51 246.127,234.343 247.5,234.5C 247.649,233.448 247.483,232.448 247,231.5C 243.564,229.726 240.731,227.392 238.5,224.5 Z"/></g>
<g><path style="opacity:1" fill="#c16fd1" d="M 42.5,230.5 C 43.9778,230.238 45.3112,230.571 46.5,231.5C 49.9797,234.408 53.6463,237.075 57.5,239.5C 59.2065,240.873 60.5398,242.539 61.5,244.5C 54.0364,241.37 47.703,236.703 42.5,230.5 Z"/></g>
<g><path style="opacity:1" fill="#c270d3" d="M 194.5,219.5 C 195.249,220.531 195.915,221.698 196.5,223C 198.256,223.202 199.922,223.702 201.5,224.5C 200.675,225.386 199.675,225.719 198.5,225.5C 198.745,231.408 201.745,234.741 207.5,235.5C 207.5,236.5 207.5,237.5 207.5,238.5C 211.424,237.997 213.757,239.664 214.5,243.5C 207.999,240.179 202.166,235.846 197,230.5C 195.589,228.35 194.755,226.016 194.5,223.5C 194.5,222.167 194.5,220.833 194.5,219.5 Z"/></g>
<g><path style="opacity:0.004" fill="#000000" d="M 9.5,239.5 C 10.8333,240.167 10.8333,240.167 9.5,239.5 Z"/></g>
<g><path style="opacity:1" fill="#bf6dce" d="M 345.5,217.5 C 345.277,240.845 344.611,264.179 343.5,287.5C 339.571,288.433 335.571,288.766 331.5,288.5C 331.611,287.883 331.944,287.383 332.5,287C 335.817,286.502 339.15,286.335 342.5,286.5C 342.667,272.496 342.5,258.496 342,244.5C 341.5,243.5 341,242.5 340.5,241.5C 342.231,238.761 343.397,239.094 344,242.5C 344.171,233.99 344.671,225.657 345.5,217.5 Z"/></g>
<g><path style="opacity:1" fill="#bd6dce" d="M 381.5,210.5 C 382.661,224.327 382.827,238.327 382,252.5C 381.617,251.944 381.117,251.611 380.5,251.5C 380.865,237.834 381.198,224.168 381.5,210.5 Z"/></g>
<g><path style="opacity:0.004" fill="#000000" d="M 298.5,250.5 C 299.833,251.167 299.833,251.167 298.5,250.5 Z"/></g>
<g><path style="opacity:1" fill="#ce69e2" d="M 381.5,181.5 C 381.5,185.167 381.5,188.833 381.5,192.5C 380.907,212.664 379.574,232.664 377.5,252.5C 377.5,255.833 376.167,258.5 373.5,260.5C 374.761,262.993 376.761,264.826 379.5,266C 376.93,266.723 374.597,267.89 372.5,269.5C 370.95,266.904 368.95,265.904 366.5,266.5C 368.774,267.968 370.774,269.802 372.5,272C 371.978,272.561 371.645,273.228 371.5,274C 372.32,275.8 372.986,277.634 373.5,279.5C 374.721,280.028 375.887,280.695 377,281.5C 377.021,279.562 376.854,277.562 376.5,275.5C 377.035,273.739 378.035,272.406 379.5,271.5C 379.5,275.833 379.5,280.167 379.5,284.5C 379.5,285.5 379.5,286.5 379.5,287.5C 369.174,288.018 358.841,288.351 348.5,288.5C 348.5,288.167 348.5,287.833 348.5,287.5C 350.049,265.262 350.882,242.929 351,220.5C 351.333,220.167 351.667,219.833 352,219.5C 352.122,221.437 352.955,222.77 354.5,223.5C 355.461,221.735 355.795,219.735 355.5,217.5C 356.29,216.391 356.79,215.058 357,213.5C 357.499,208.177 357.666,202.844 357.5,197.5C 358.727,199.632 359.727,201.966 360.5,204.5C 358.784,206.915 358.284,209.582 359,212.5C 359.667,211.167 360.333,211.167 361,212.5C 361.167,213.833 361.333,215.167 361.5,216.5C 362.012,221.035 360.679,222.035 357.5,219.5C 356.24,221.353 356.24,223.186 357.5,225C 356.692,225.308 356.025,225.808 355.5,226.5C 356.167,227.5 356.833,228.5 357.5,229.5C 357.773,236.879 357.273,244.213 356,251.5C 356.388,252.428 357.055,253.095 358,253.5C 359.767,252.66 361.101,251.327 362,249.5C 362.252,246.333 362.418,243.333 362.5,240.5C 363.167,240.833 363.833,241.167 364.5,241.5C 365.995,244.645 365.662,247.478 363.5,250C 365.473,250.495 367.473,250.662 369.5,250.5C 367.283,246.155 368.283,242.821 372.5,240.5C 371.675,239.614 370.675,239.281 369.5,239.5C 369.5,237.833 369.5,236.167 369.5,234.5C 370.833,234.167 370.833,233.833 369.5,233.5C 369.238,232.022 369.571,230.689 370.5,229.5C 371.086,229.709 371.586,230.043 372,230.5C 372.198,233.702 373.031,236.702 374.5,239.5C 375.086,239.291 375.586,238.957 376,238.5C 378.399,228.044 379.065,217.378 378,206.5C 377.586,206.957 377.086,207.291 376.5,207.5C 374.299,205.944 374.299,204.777 376.5,204C 374.771,202.211 374.104,200.044 374.5,197.5C 376.201,197.966 377.701,197.966 379,197.5C 380.011,192.064 380.844,186.73 381.5,181.5 Z"/></g>
<g><path style="opacity:1" fill="#c26dd2" d="M 137.5,176.5 C 129.804,176.169 122.138,176.503 114.5,177.5C 113.553,179.059 112.887,180.726 112.5,182.5C 112.439,184.721 113.105,185.054 114.5,183.5C 114.5,184.167 114.833,184.5 115.5,184.5C 115.5,184.833 115.5,185.167 115.5,185.5C 113.588,189.194 113.088,193.194 114,197.5C 114.183,194.635 114.683,191.969 115.5,189.5C 115.819,194.363 115.486,199.03 114.5,203.5C 114.768,201.901 114.434,200.568 113.5,199.5C 111.69,205.038 110.19,210.704 109,216.5C 108.547,233.222 108.547,249.889 109,266.5C 109.333,268.5 109.667,270.5 110,272.5C 111.399,273.227 112.899,273.727 114.5,274C 117.892,275.563 118.225,277.563 115.5,280C 117.788,284.905 121.121,285.739 125.5,282.5C 125.5,283.5 125.5,284.5 125.5,285.5C 124.448,285.351 123.448,285.517 122.5,286C 124.744,286.05 126.411,286.883 127.5,288.5C 121.073,287.702 115.906,284.702 112,279.5C 109.048,273.32 106.881,266.987 105.5,260.5C 105.626,258.8 106.293,257.3 107.5,256C 106.167,255.333 104.833,254.667 103.5,254C 104.432,250.865 104.432,247.699 103.5,244.5C 104.887,246.877 105.721,249.543 106,252.5C 106.677,227.729 108.677,203.063 112,178.5C 112.374,177.584 112.874,176.75 113.5,176C 121.677,175.177 129.677,175.344 137.5,176.5 Z"/></g>
<g><path style="opacity:0.522" fill="#af65bd" d="M 409.5,239.5 C 409.167,244.833 408.833,250.167 408.5,255.5C 420.081,255.821 431.581,255.488 443,254.5C 444.948,255.109 446.782,255.776 448.5,256.5C 434.833,256.5 421.167,256.5 407.5,256.5C 407.216,250.583 407.883,244.916 409.5,239.5 Z"/></g>
<g><path style="opacity:0.937" fill="#ba6fc9" d="M 222.5,248.5 C 229.705,250.907 232.205,255.907 230,263.5C 225.377,269.307 220.21,269.974 214.5,265.5C 218.131,266.412 221.797,266.579 225.5,266C 228.792,263.588 229.959,260.421 229,256.5C 227.521,253.172 225.355,250.506 222.5,248.5 Z"/></g>
<g><path style="opacity:0.004" fill="#000000" d="M 184.5,257.5 C 185.833,258.167 185.833,258.167 184.5,257.5 Z"/></g>
<g><path style="opacity:0.995" fill="#fcfcfc" d="M 466.5,256.5 C 486.457,256.751 492.624,266.085 485,284.5C 475.033,292.886 465.7,292.22 457,282.5C 451.954,270.623 455.121,261.956 466.5,256.5 Z"/></g>
<g><path style="opacity:0.808" fill="#b970c6" d="M 134.5,242.5 C 134.335,245.85 134.502,249.183 135,252.5C 136.433,260.427 140.933,262.927 148.5,260C 151.746,258.258 154.079,255.758 155.5,252.5C 155.509,254.308 155.009,255.975 154,257.5C 148.132,262.98 141.799,263.647 135,259.5C 134.86,256.957 134.194,254.623 133,252.5C 132.333,248.167 132.333,243.833 133,239.5C 133.232,240.737 133.732,241.737 134.5,242.5 Z"/></g>
<g><path style="opacity:0.392" fill="#b066bd" d="M 295.5,245.5 C 293.879,256.425 292.879,267.425 292.5,278.5C 292.5,267.5 292.5,256.5 292.5,245.5C 293.5,245.5 294.5,245.5 295.5,245.5 Z"/></g>
<g><path style="opacity:0.759" fill="#ae67bb" d="M 264.5,239.5 C 264.613,249.37 263.947,259.037 262.5,268.5C 262.557,258.641 263.224,248.974 264.5,239.5 Z"/></g>
<g><path style="opacity:0.004" fill="#000000" d="M 310.5,265.5 C 311.833,266.167 311.833,266.167 310.5,265.5 Z"/></g>
<g><path style="opacity:0.378" fill="#b36fc2" d="M 71.5,251.5 C 73.0744,251.937 74.2411,252.937 75,254.5C 77.3417,265.822 72.8417,269.988 61.5,267C 58.9746,266.576 56.9746,265.41 55.5,263.5C 60.9756,266.561 66.6423,267.061 72.5,265C 75.1971,260.326 74.8638,255.826 71.5,251.5 Z"/></g>
<g><path style="opacity:1" fill="#c46ad6" d="M 379.5,251.5 C 380.784,258.232 380.784,264.898 379.5,271.5C 378.035,272.406 377.035,273.739 376.5,275.5C 376.854,277.562 377.021,279.562 377,281.5C 375.887,280.695 374.721,280.028 373.5,279.5C 372.986,277.634 372.32,275.8 371.5,274C 371.645,273.228 371.978,272.561 372.5,272C 370.774,269.802 368.774,267.968 366.5,266.5C 368.95,265.904 370.95,266.904 372.5,269.5C 374.597,267.89 376.93,266.723 379.5,266C 376.761,264.826 374.761,262.993 373.5,260.5C 376.167,258.5 377.5,255.833 377.5,252.5C 378.167,252.167 378.833,251.833 379.5,251.5 Z M 377.5,258.5 C 379.657,259.053 379.49,260.053 377,261.5C 376.53,260.423 376.697,259.423 377.5,258.5 Z"/></g>
<g><path style="opacity:1" fill="#c46dd5" d="M 182.5,260.5 C 180.526,268.458 176.526,275.124 170.5,280.5C 170.5,278.167 170.5,275.833 170.5,273.5C 175.981,271.991 178.315,268.324 177.5,262.5C 179.322,262.169 180.989,261.502 182.5,260.5 Z"/></g>
<g><path style="opacity:0.988" fill="#ba6dc9" d="M 310.5,240.5 C 312.467,240.261 314.301,240.594 316,241.5C 314.98,256.353 314.647,271.353 315,286.5C 318.935,287.138 322.769,287.804 326.5,288.5C 322.486,288.666 318.486,288.499 314.5,288C 313.57,286.806 312.903,285.473 312.5,284C 313.308,272.971 313.975,261.638 314.5,250C 314.167,247.167 313.833,244.333 313.5,241.5C 308.482,242.407 303.482,243.407 298.5,244.5C 298.611,243.883 298.944,243.383 299.5,243C 303.312,242.205 306.979,241.371 310.5,240.5 Z"/></g>
<g><path style="opacity:1" fill="#c76bd8" d="M 47.5,259.5 C 42.1587,257.051 39.8254,258.718 40.5,264.5C 41.552,264.351 42.552,264.517 43.5,265C 37.0792,265.958 34.0792,269.792 34.5,276.5C 41.2618,279.075 44.2618,276.742 43.5,269.5C 44.9778,269.238 46.3112,269.571 47.5,270.5C 44.8333,271.833 44.8333,273.167 47.5,274.5C 45.7108,277.556 45.0441,280.889 45.5,284.5C 41.4023,282.952 37.4023,281.119 33.5,279C 32.9032,277.938 32.5698,276.772 32.5,275.5C 34.4388,269.619 36.9388,263.952 40,258.5C 42.7848,257.093 45.2848,257.426 47.5,259.5 Z"/></g>
<g><path style="opacity:0.004" fill="#000000" d="M 181.5,279.5 C 182.833,280.167 182.833,280.167 181.5,279.5 Z"/></g>
<g><path style="opacity:1" fill="#bc6dcd" d="M 196.5,282.5 C 202.951,284.041 209.285,285.874 215.5,288C 223.623,288.758 231.623,288.258 239.5,286.5C 239.5,285.5 239.5,284.5 239.5,283.5C 241.833,283.5 244.167,283.5 246.5,283.5C 244.035,285.837 241.035,287.337 237.5,288C 222.977,291.379 209.311,289.546 196.5,282.5 Z"/></g>
<g><path style="opacity:1" fill="#bd6ace" d="M 78.5,288.5 C 67.0881,290.712 56.0881,289.378 45.5,284.5C 46.9672,284.106 48.4672,283.773 50,283.5C 58.9457,287.54 68.4457,289.207 78.5,288.5 Z"/></g>
<g><path style="opacity:1" fill="#c56cd6" d="M 448.5,256.5 C 449.819,266.039 449.819,275.705 448.5,285.5C 439.6,287.262 430.6,287.929 421.5,287.5C 407.498,287.773 393.498,288.106 379.5,288.5C 369.039,289.796 358.705,289.796 348.5,288.5C 358.841,288.351 369.174,288.018 379.5,287.5C 379.5,286.5 379.5,285.5 379.5,284.5C 384.98,286.414 390.48,287.414 396,287.5C 409.812,286.71 423.645,286.21 437.5,286C 440.206,284.092 443.206,283.259 446.5,283.5C 446.672,281.508 446.005,279.842 444.5,278.5C 445.557,278.094 446.891,278.094 448.5,278.5C 448.5,271.167 448.5,263.833 448.5,256.5 Z"/></g>
<g><path style="opacity:0.994" fill="#bc6dc9" d="M 168.5,281.5 C 163.582,285.428 157.916,287.928 151.5,289C 143.655,289.822 135.989,289.656 128.5,288.5C 134.842,288.666 141.175,288.5 147.5,288C 150.799,287.253 153.799,285.92 156.5,284C 160.609,283.335 164.609,282.502 168.5,281.5 Z"/></g>
<g><path style="opacity:0.867" fill="#b46ac2" d="M 262.5,269.5 C 262.19,275.758 262.524,281.924 263.5,288C 272.5,288.667 281.5,288.667 290.5,288C 291.123,285.393 291.79,282.893 292.5,280.5C 292.777,283.448 292.444,286.281 291.5,289C 281.506,289.5 271.506,289.666 261.5,289.5C 261.579,288.07 261.246,286.736 260.5,285.5C 261.124,280.035 261.79,274.702 262.5,269.5 Z"/></g>
<g><path style="opacity:0.911" fill="#b46dc0" d="M 421.5,287.5 C 407.518,289.227 393.518,289.56 379.5,288.5C 393.498,288.106 407.498,287.773 421.5,287.5 Z"/></g>
<g><path style="opacity:0.004" fill="#000000" d="M 122.5,291.5 C 123.833,292.167 123.833,292.167 122.5,291.5 Z"/></g>
<g><path style="opacity:0.004" fill="#000000" d="M 153.5,294.5 C 154.833,295.167 154.833,295.167 153.5,294.5 Z"/></g>
<g><path style="opacity:0.004" fill="#000000" d="M 336.5,302.5 C 337.833,303.167 337.833,303.167 336.5,302.5 Z"/></g>
<g><path style="opacity:0.004" fill="#000000" d="M 116.5,304.5 C 117.833,305.167 117.833,305.167 116.5,304.5 Z"/></g>
<g><path style="opacity:0.004" fill="#000000" d="M 339.5,304.5 C 340.833,305.167 340.833,305.167 339.5,304.5 Z"/></g>
<g><path style="opacity:0.004" fill="#000000" d="M 290.5,310.5 C 291.833,311.167 291.833,311.167 290.5,310.5 Z"/></g>
<g><path style="opacity:0.004" fill="#000000" d="M 288.5,315.5 C 289.833,316.167 289.833,316.167 288.5,315.5 Z"/></g>
<g><path style="opacity:0.004" fill="#000000" d="M 130.5,320.5 C 131.833,321.167 131.833,321.167 130.5,320.5 Z"/></g>
<g><path style="opacity:0.004" fill="#000000" d="M 220.5,333.5 C 221.833,334.167 221.833,334.167 220.5,333.5 Z"/></g>
<g><path style="opacity:0.004" fill="#000000" d="M 396.5,341.5 C 397.833,342.167 397.833,342.167 396.5,341.5 Z"/></g>
<g><path style="opacity:0.004" fill="#000000" d="M 214.5,347.5 C 215.833,348.167 215.833,348.167 214.5,347.5 Z"/></g>
<g><path style="opacity:0.004" fill="#000000" d="M 362.5,350.5 C 363.833,351.167 363.833,351.167 362.5,350.5 Z"/></g>
<g><path style="opacity:0.004" fill="#000000" d="M 323.5,361.5 C 324.833,362.167 324.833,362.167 323.5,361.5 Z"/></g>
<g><path style="opacity:0.004" fill="#000000" d="M 156.5,364.5 C 157.833,365.167 157.833,365.167 156.5,364.5 Z"/></g>
<g><path style="opacity:0.004" fill="#000000" d="M 270.5,370.5 C 271.833,371.167 271.833,371.167 270.5,370.5 Z"/></g>
<g><path style="opacity:0.004" fill="#000000" d="M 279.5,370.5 C 280.833,371.167 280.833,371.167 279.5,370.5 Z"/></g>
<g><path style="opacity:0.004" fill="#000000" d="M 189.5,397.5 C 190.833,398.167 190.833,398.167 189.5,397.5 Z"/></g>
<g><path style="opacity:0.004" fill="#000000" d="M 421.5,399.5 C 422.833,400.167 422.833,400.167 421.5,399.5 Z"/></g>
<g><path style="opacity:0.004" fill="#000000" d="M 364.5,400.5 C 365.833,401.167 365.833,401.167 364.5,400.5 Z"/></g>
<g><path style="opacity:0.004" fill="#000000" d="M 419.5,401.5 C 420.833,402.167 420.833,402.167 419.5,401.5 Z"/></g>
<g><path style="opacity:0.004" fill="#000000" d="M 119.5,410.5 C 120.833,411.167 120.833,411.167 119.5,410.5 Z"/></g>
<g><path style="opacity:0.004" fill="#000000" d="M 487.5,410.5 C 488.833,411.167 488.833,411.167 487.5,410.5 Z"/></g>
<g><path style="opacity:0.004" fill="#000000" d="M 156.5,419.5 C 157.833,420.167 157.833,420.167 156.5,419.5 Z"/></g>
<g><path style="opacity:0.004" fill="#000000" d="M 296.5,425.5 C 297.833,426.167 297.833,426.167 296.5,425.5 Z"/></g>
<g><path style="opacity:0.004" fill="#000000" d="M 356.5,427.5 C 357.833,428.167 357.833,428.167 356.5,427.5 Z"/></g>
<g><path style="opacity:0.004" fill="#000000" d="M 491.5,443.5 C 492.833,444.167 492.833,444.167 491.5,443.5 Z"/></g>
<g><path style="opacity:0.004" fill="#000000" d="M 253.5,445.5 C 254.833,446.167 254.833,446.167 253.5,445.5 Z"/></g>
<g><path style="opacity:0.004" fill="#000000" d="M 188.5,448.5 C 189.833,449.167 189.833,449.167 188.5,448.5 Z"/></g>
<g><path style="opacity:0.004" fill="#000000" d="M 296.5,449.5 C 297.833,450.167 297.833,450.167 296.5,449.5 Z"/></g>
<g><path style="opacity:0.004" fill="#000000" d="M 197.5,450.5 C 198.833,451.167 198.833,451.167 197.5,450.5 Z"/></g>
<g><path style="opacity:0.004" fill="#000000" d="M 446.5,451.5 C 447.833,452.167 447.833,452.167 446.5,451.5 Z"/></g>
<g><path style="opacity:0.004" fill="#000000" d="M 128.5,462.5 C 129.833,463.167 129.833,463.167 128.5,462.5 Z"/></g>
<g><path style="opacity:0.004" fill="#000000" d="M 202.5,469.5 C 203.833,470.167 203.833,470.167 202.5,469.5 Z"/></g>
<g><path style="opacity:0.004" fill="#000000" d="M 173.5,479.5 C 174.833,480.167 174.833,480.167 173.5,479.5 Z"/></g>
<g><path style="opacity:0.004" fill="#000000" d="M 393.5,481.5 C 394.833,482.167 394.833,482.167 393.5,481.5 Z"/></g>
<g><path style="opacity:0.004" fill="#000000" d="M 192.5,486.5 C 193.833,487.167 193.833,487.167 192.5,486.5 Z"/></g>
<g><path style="opacity:0.004" fill="#000000" d="M 407.5,486.5 C 408.833,487.167 408.833,487.167 407.5,486.5 Z"/></g>
<g><path style="opacity:0.004" fill="#000000" d="M 110.5,487.5 C 111.833,488.167 111.833,488.167 110.5,487.5 Z"/></g>
<g><path style="opacity:0.004" fill="#000000" d="M 456.5,496.5 C 457.833,497.167 457.833,497.167 456.5,496.5 Z"/></g>
</svg>
